<?xml version="1.0" encoding="UTF-8"?>
<svg width="20px" height="22px" viewBox="0 0 20 22" version="1.1" xmlns="http://www.w3.org/2000/svg" xmlns:xlink="http://www.w3.org/1999/xlink">
    <!-- Generator: Sketch 56.3 (81716) - https://sketch.com -->
    <title>Group 3</title>
    <desc>Created with Sketch.</desc>
    <defs>
        <polygon id="path-1" points="0 -2.5e-05 19.38125 -2.5e-05 19.38125 21.5799 0 21.5799"></polygon>
    </defs>
    <g id="UI_d_상품상세페이지" stroke="none" stroke-width="1" fill="none" fill-rule="evenodd">
        <g id="desktop_부동산담보_detail" transform="translate(-1049.000000, -486.000000)">
            <g id="Group-3" transform="translate(1049.000000, 486.000000)">
                <mask id="mask-2" fill="white">
                    <use xlink:href="#path-1"></use>
                </mask>
                <g id="Clip-2"></g>
                <path d="M16.3275,15.472475 C15.47375,15.472475 14.70275,15.823475 14.1485,16.388225 L5.9195,11.592225 C6.039,11.265225 6.1075,10.913975 6.1075,10.545475 C6.1075,10.329975 6.0845,10.119725 6.042,9.916475 L14.14875,5.191725 C14.70275,5.756475 15.47375,6.107475 16.3275,6.107475 C18.014,6.107475 19.38125,4.740225 19.38125,3.053725 C19.38125,1.367225 18.014,-2.5e-05 16.3275,-2.5e-05 C14.641,-2.5e-05 13.27375,1.367225 13.27375,3.053725 C13.27375,3.345975 13.31725,3.627725 13.394,3.895475 L5.37775,8.567475 C4.81775,7.909975 3.985,7.491975 3.05375,7.491975 C1.36725,7.491975 0,8.858975 0,10.545475 C0,12.232225 1.36725,13.599475 3.05375,13.599475 C3.828,13.599475 4.53275,13.308975 5.07125,12.833725 L13.394,17.684475 C13.31725,17.952225 13.27375,18.233975 13.27375,18.526225 C13.27375,20.212725 14.641,21.579975 16.3275,21.579975 C18.014,21.579975 19.38125,20.212725 19.38125,18.526225 C19.38125,16.839725 18.014,15.472475 16.3275,15.472475" id="Fill-1" fill="#CCCCCC" mask="url(#mask-2)"></path>
            </g>
        </g>
    </g>
</svg>