<?xml version="1.0" encoding="UTF-8"?>
<svg width="12px" height="16px" viewBox="0 0 12 16" version="1.1" xmlns="http://www.w3.org/2000/svg" xmlns:xlink="http://www.w3.org/1999/xlink">
    <!-- Generator: Sketch 56.2 (81672) - https://sketch.com -->
    <title>Group 12 Copy 2</title>
    <desc>Created with Sketch.</desc>
    <defs>
        <polygon id="path-1" points="0.000624360196 0.000192 11.71584 0.000192 11.71584 15.185952 0.000624360196 15.185952"></polygon>
    </defs>
    <g id="Page-1" stroke="none" stroke-width="1" fill="none" fill-rule="evenodd">
        <g id="mobile_부동산담보_detail" transform="translate(-24.000000, -1168.000000)">
            <g id="Group-12-Copy-2" transform="translate(20.000000, 1168.000000)">
                <g id="Group-3-Copy" transform="translate(4.000000, 0.000000)">
                    <mask id="mask-2" fill="white">
                        <use xlink:href="#path-1"></use>
                    </mask>
                    <g id="Clip-2"></g>
                    <path d="M5.100288,10.078752 L1.696128,7.181472 L2.910528,5.753952 L5.041728,7.566432 L8.997888,3.868512 L10.278528,5.238432 L5.100288,10.078752 Z M5.858688,-0.000288 L0.000768,0.778272 L0.000768,8.350752 C0.000768,8.350752 -0.044352,10.786272 1.464768,12.305952 C2.629248,13.478112 5.142528,14.817312 5.858688,15.185952 C6.573888,14.817312 9.087168,13.478112 10.251648,12.305952 C11.759808,10.786272 11.716608,8.350752 11.716608,8.350752 L11.716608,0.778272 L5.858688,-0.000288 Z" id="Fill-1" fill="#CCCCCC" mask="url(#mask-2)"></path>
                </g>
                <rect id="Rectangle" x="0" y="1" width="20" height="15"></rect>
            </g>
        </g>
    </g>
</svg>